/* XPM */
static char * maximize_prelight_xpm[] = {
"24 24 4 1",
" 	c #2E3440",
".	c #919191",
"+	c #BCBCBC",
"@	c #898989",
"                        ",
"                        ",
"                        ",
"                        ",
"                        ",
"                        ",
"                        ",
"          .++.          ",
"        .++++++@        ",
"        ++++++++        ",
"       .++++++++.       ",
"       ++++++++++       ",
"       ++++++++++       ",
"       .++++++++.       ",
"        ++++++++        ",
"        .++++++@        ",
"          .++.          ",
"                        ",
"                        ",
"                        ",
"                        ",
"                        ",
"                        ",
"                        "};
