/* XPM */
static char * hide_active_xpm[] = {
"24 24 9 1",
" 	c #2E3440",
".	c #747577",
"+	c #919191",
"@	c #8C8C8C",
"#	c #7A7B7D",
"$	c #525459",
"%	c #636567",
"&	c #848484",
"*	c #616266",
"                        ",
"                        ",
"                        ",
"                        ",
"                        ",
"                        ",
"                        ",
"          .+@#          ",
"        $++++++%        ",
"        @+++++++        ",
"       #++++++++.       ",
"       ++++++++++       ",
"       ++++++++++       ",
"       .++++++++#       ",
"        &+++++++        ",
"        *++++++%        ",
"          .++.          ",
"                        ",
"                        ",
"                        ",
"                        ",
"                        ",
"                        ",
"                        "};
