/* XPM */
static char * maximize_toggled_active_xpm[] = {
"24 24 3 1",
" 	c #2E3440",
".	c #919191",
"+	c #898989",
"                        ",
"                        ",
"                        ",
"                        ",
"                        ",
"                        ",
"                        ",
"          ....          ",
"        .......+        ",
"        ........        ",
"       ..........       ",
"       ..........       ",
"       ..........       ",
"       ..........       ",
"        ........        ",
"        .......+        ",
"          ....          ",
"                        ",
"                        ",
"                        ",
"                        ",
"                        ",
"                        ",
"                        "};
