/* XPM */
static char * maximize_toggled_inactive_xpm[] = {
"24 24 4 1",
" 	c #2E3440",
".	c #37383C",
"+	c #424242",
"@	c #31353D",
"                        ",
"                        ",
"                        ",
"                        ",
"                        ",
"                        ",
"                        ",
"          .++.          ",
"        @++++++         ",
"        ++++++++        ",
"       .++++++++.       ",
"       ++++++++++       ",
"       ++++++++++       ",
"       .++++++++@       ",
"        ++++++++        ",
"         ++++++         ",
"          .++.          ",
"                        ",
"                        ",
"                        ",
"                        ",
"                        ",
"                        ",
"                        "};
